<?xml version="1.0" ?>
<svg id="Layer_1" style="enable-background:new 0 0 30 30;" version="1.1" viewBox="0 0 30 30" xml:space="preserve" xmlns="http://www.w3.org/2000/svg" xmlns:xlink="http://www.w3.org/1999/xlink">
    <circle cx="20" cy="10" r="1" fill="#d2d2d2" />
        <g>
            <path d="M13,19c0,1.105-0.895,2-2,2s-2-0.895-2-2s0.895-2,2-2S13,17.895,13,19z M22,18.665v0.67c0,0.241-0.171,0.447-0.408,0.491   l-0.988,0.185c-0.411,0.077-0.714,0.406-0.797,0.816c-0.069,0.341-0.157,0.676-0.264,1.002c-0.13,0.396-0.032,0.829,0.284,1.1   l0.759,0.651c0.183,0.157,0.228,0.421,0.107,0.63l-0.335,0.58c-0.12,0.208-0.372,0.302-0.599,0.222l-0.953-0.335   c-0.393-0.138-0.818-0.006-1.096,0.305c-0.229,0.257-0.473,0.5-0.73,0.73c-0.311,0.278-0.443,0.702-0.305,1.096l0.335,0.953   c0.08,0.227-0.013,0.479-0.222,0.599l-0.58,0.335c-0.208,0.12-0.473,0.075-0.63-0.107l-0.651-0.759   c-0.271-0.316-0.704-0.414-1.1-0.284c-0.326,0.107-0.66,0.195-1.002,0.264c-0.41,0.083-0.739,0.386-0.816,0.797l-0.185,0.988   C11.782,29.829,11.576,30,11.335,30h-0.67c-0.241,0-0.447-0.171-0.491-0.408l-0.185-0.988c-0.077-0.411-0.406-0.714-0.816-0.797   c-0.341-0.069-0.676-0.157-1.002-0.264c-0.396-0.13-0.829-0.032-1.1,0.284L6.42,28.586c-0.157,0.183-0.421,0.228-0.63,0.107   l-0.58-0.335c-0.208-0.12-0.302-0.372-0.222-0.599l0.335-0.953c0.138-0.394,0.006-0.818-0.305-1.096   c-0.257-0.229-0.5-0.473-0.73-0.73c-0.278-0.311-0.702-0.443-1.096-0.305L2.24,25.012c-0.227,0.08-0.479-0.013-0.599-0.222   l-0.335-0.58c-0.12-0.208-0.075-0.473,0.107-0.63l0.759-0.651c0.316-0.271,0.414-0.704,0.284-1.1   c-0.107-0.326-0.195-0.66-0.264-1.002c-0.083-0.41-0.386-0.739-0.797-0.816l-0.988-0.185C0.171,19.782,0,19.576,0,19.335v-0.67   c0-0.241,0.171-0.447,0.408-0.491l0.988-0.185c0.411-0.077,0.714-0.406,0.797-0.816c0.069-0.341,0.157-0.676,0.264-1.002   c0.13-0.396,0.032-0.829-0.284-1.1L1.414,14.42c-0.183-0.157-0.228-0.421-0.107-0.63l0.335-0.58   c0.12-0.208,0.372-0.302,0.599-0.222l0.953,0.335c0.394,0.138,0.818,0.006,1.096-0.305c0.229-0.257,0.473-0.5,0.73-0.73   c0.311-0.278,0.443-0.702,0.305-1.096L4.988,10.24c-0.08-0.227,0.013-0.479,0.222-0.599l0.58-0.335   c0.208-0.12,0.473-0.075,0.63,0.107l0.651,0.759c0.271,0.316,0.704,0.414,1.1,0.284c0.326-0.107,0.661-0.195,1.002-0.264   c0.41-0.083,0.739-0.386,0.816-0.797l0.185-0.988C10.218,8.171,10.424,8,10.665,8h0.67c0.241,0,0.447,0.171,0.491,0.408   l0.185,0.988c0.077,0.411,0.406,0.714,0.816,0.797c0.341,0.069,0.676,0.157,1.002,0.264c0.396,0.13,0.829,0.032,1.1-0.284   l0.651-0.759c0.157-0.183,0.421-0.228,0.63-0.107l0.58,0.335c0.208,0.12,0.302,0.372,0.222,0.599l-0.335,0.952   c-0.138,0.394-0.006,0.818,0.305,1.096c0.257,0.229,0.5,0.473,0.73,0.73c0.278,0.311,0.702,0.443,1.096,0.305l0.953-0.335   c0.227-0.08,0.479,0.013,0.599,0.222l0.335,0.58c0.12,0.208,0.075,0.473-0.107,0.63l-0.759,0.651   c-0.316,0.271-0.414,0.704-0.284,1.1c0.107,0.326,0.195,0.661,0.264,1.002c0.083,0.41,0.386,0.739,0.797,0.816l0.988,0.185   C21.829,18.218,22,18.424,22,18.665z M17,19c0-3.314-2.686-6-6-6s-6,2.686-6,6s2.686,6,6,6S17,22.314,17,19z" fill="#d2d2d2" />
        </g>
        <path d="M29.592,9.174l-1.176-0.221c-0.305-0.057-0.533-0.299-0.596-0.604c-0.059-0.284-0.133-0.563-0.221-0.835  c-0.096-0.295-0.02-0.616,0.215-0.818L28.72,5.92c0.183-0.157,0.228-0.421,0.107-0.63l-0.335-0.58  c-0.12-0.208-0.372-0.302-0.599-0.222l-1.128,0.397c-0.292,0.103-0.609,0.008-0.816-0.223c-0.193-0.215-0.397-0.419-0.612-0.612  c-0.231-0.207-0.326-0.524-0.223-0.816l0.397-1.128c0.08-0.227-0.013-0.479-0.222-0.599l-0.58-0.335  c-0.208-0.12-0.473-0.075-0.63,0.107l-0.777,0.906c-0.202,0.235-0.523,0.311-0.818,0.215c-0.272-0.088-0.551-0.162-0.835-0.221  c-0.304-0.063-0.546-0.291-0.604-0.596l-0.221-1.176C20.782,0.171,20.576,0,20.335,0h-0.67c-0.241,0-0.447,0.171-0.491,0.408  l-0.221,1.176c-0.057,0.305-0.299,0.533-0.604,0.596c-0.284,0.059-0.563,0.133-0.835,0.221c-0.295,0.096-0.616,0.02-0.818-0.215  L15.92,1.28c-0.157-0.183-0.421-0.228-0.63-0.107l-0.58,0.335c-0.208,0.12-0.302,0.372-0.222,0.599l0.397,1.128  c0.103,0.292,0.008,0.609-0.223,0.816c-0.215,0.193-0.419,0.397-0.612,0.612c-0.207,0.231-0.524,0.326-0.816,0.223l-1.128-0.397  c-0.227-0.08-0.479,0.013-0.599,0.222l-0.335,0.58c-0.12,0.208-0.075,0.473,0.107,0.63l0.098,0.084  c1.183,0.02,2.195,0.867,2.414,2.034l0.06,0.318l0.209-0.245c0.459-0.534,1.103-0.826,1.767-0.861C16.723,5.896,18.255,5,20,5  c2.761,0,5,2.239,5,5c0,1.745-0.896,3.277-2.251,4.171c-0.035,0.664-0.326,1.308-0.86,1.766l-0.246,0.21l0.318,0.06  c1.167,0.219,2.014,1.231,2.034,2.414l0.084,0.098c0.157,0.183,0.421,0.228,0.63,0.107l0.58-0.335  c0.208-0.12,0.302-0.372,0.222-0.599l-0.397-1.128c-0.103-0.292-0.008-0.609,0.223-0.816c0.215-0.193,0.419-0.397,0.612-0.612  c0.207-0.231,0.524-0.326,0.816-0.223l1.128,0.397c0.227,0.08,0.479-0.013,0.599-0.222l0.335-0.58  c0.12-0.208,0.075-0.473-0.107-0.63l-0.906-0.777c-0.235-0.202-0.311-0.523-0.215-0.818c0.088-0.272,0.162-0.551,0.221-0.835  c0.063-0.304,0.291-0.546,0.596-0.604l1.176-0.221C29.829,10.782,30,10.576,30,10.335v-0.67C30,9.424,29.829,9.218,29.592,9.174z" fill="#d2d2d2" />
</svg>